<svg width="40" height="40" viewBox="0 0 40 40" fill="none" xmlns="http://www.w3.org/2000/svg">
<rect width="40" height="40" rx="20" fill="#F37DAE"/>
<path fillRule="evenodd" clipRule="evenodd" d="M20.0059 8.45593L30.0059 14.2294V21.1115H27.7836V16.6671L21.117 20.5161V30.9084L20.0059 31.5499L10.0059 25.7764V14.2294L20.0059 8.45593ZM27.7836 22.2226L27.7836 25.5559H31.117V27.7782L27.7836 27.7781L27.7836 31.1115H25.5614L25.5614 27.7781L22.2281 27.7782V25.5559H25.5614L25.5614 22.2226H27.7836ZM12.228 16.6671L12.2281 24.4934L18.8947 28.3424V20.5161L12.228 16.6671ZM20.0059 11.0219L13.4503 14.8068L20.0059 18.5916L26.5614 14.8068L20.0059 11.0219Z" fill="#F3FEF7"/>
</svg>
